<svg width="160" height="160" viewBox="0 0 160 160" fill="none" xmlns="http://www.w3.org/2000/svg">
<rect width="160" height="160" fill="#7287FD"/>
<g clip-path="url(#clip0_53_7)">
<path d="M55.75 19C49.5463 19 44.5 24.0463 44.5 30.25C44.5 36.4537 49.5463 41.5 55.75 41.5C61.9535 41.5 67 36.4535 67 30.25C67 24.0465 61.9535 19 55.75 19ZM55.75 34.0001C53.6791 34.0001 51.9999 32.3211 51.9999 30.25C51.9999 28.1789 53.6789 26.4999 55.75 26.4999C57.8211 26.4999 59.5001 28.1789 59.5001 30.25C59.5001 32.3211 57.8209 34.0001 55.75 34.0001Z" fill="white"/>
<path d="M78.2501 41.5C80.3212 41.5 82.0002 39.8211 82.0002 37.75C82.0002 35.6788 80.3212 33.9999 78.2501 33.9999C76.179 33.9999 74.5 35.6788 74.5 37.75C74.5 39.8211 76.179 41.5 78.2501 41.5Z" fill="white"/>
<path d="M88.2501 29C90.3212 29 92.0002 27.3211 92.0002 25.25C92.0002 23.1788 90.3212 21.4999 88.2501 21.4999C86.179 21.4999 84.5 23.1788 84.5 25.25C84.5 27.3211 86.179 29 88.2501 29Z" fill="white"/>
<path d="M121.171 56.5001H125.75C127.821 56.5001 129.5 54.8211 129.5 52.75C129.5 50.6789 127.821 48.9999 125.75 48.9999H102.34L118.402 32.9383C119.866 31.4739 119.866 29.0995 118.402 27.6351C116.938 26.1706 114.563 26.1706 113.099 27.6351L91.7336 48.9999H33.2501C31.1792 48.9999 29.5 50.6789 29.5 52.75C29.5 54.8211 31.179 56.5001 33.2501 56.5001H37.8294C32.5978 64.3935 29.5 73.8197 29.5 83.9999C29.5 94.3236 32.6322 103.914 37.9938 111.88C33.1212 113.115 29.5 117.493 29.5 122.75C29.5 128.963 34.5366 134 40.75 134C46.0068 134 50.3849 130.379 51.6195 125.506C59.5855 130.868 69.1764 134 79.5001 134C89.8233 134 99.4135 130.868 107.379 125.507C108.614 130.38 112.992 134 118.248 134C124.461 134 129.498 128.963 129.498 122.75C129.498 117.494 125.878 113.116 121.006 111.881C126.368 103.915 129.5 94.3239 129.5 83.9999C129.5 73.8197 126.402 64.3935 121.171 56.5001ZM80.8098 118.975C80.7624 118.978 80.7145 118.978 80.6683 118.978C78.6616 118.978 76.9975 117.389 76.9234 115.367C76.8463 113.297 78.4626 111.556 80.5319 111.48C94.7261 110.956 106.34 99.2769 106.972 85.0902C107.064 83.0199 108.767 81.3475 110.886 81.511C112.955 81.6013 114.557 83.3542 114.465 85.4224C113.66 103.484 98.8762 118.307 80.8098 118.975Z" fill="white"/>
</g>
<defs>
<clipPath id="clip0_53_7">
<rect width="115" height="115" fill="white" transform="translate(22 19)"/>
</clipPath>
</defs>
</svg>
