<?xml version="1.0" standalone="no"?>
<!DOCTYPE svg PUBLIC "-//W3C//DTD SVG 20010904//EN"
 "http://www.w3.org/TR/2001/REC-SVG-20010904/DTD/svg10.dtd">
<svg version="1.0" xmlns="http://www.w3.org/2000/svg"
 width="700.000000pt" height="700.000000pt" viewBox="0 0 700.000000 700.000000"
 preserveAspectRatio="xMidYMid meet">
<metadata>
Created by potrace 1.14, written by Peter Selinger 2001-2017
</metadata>
<g transform="translate(0.000000,700.000000) scale(0.100000,-0.100000)"
fill="#000000" stroke="none">
<path d="M0 3500 l0 -3500 3500 0 3500 0 0 3500 0 3500 -3500 0 -3500 0 0
-3500z m2543 2655 c312 -66 478 -417 333 -704 -32 -62 -113 -151 -174 -189
-153 -98 -371 -99 -522 -2 -144 92 -230 247 -230 415 0 192 104 360 272 440
116 55 200 66 321 40z m1405 -122 c165 -123 24 -375 -158 -281 -60 31 -90 77
-90 140 0 72 38 131 100 157 37 16 117 7 148 -16z m1192 -216 c49 -26 90 -90
90 -139 0 -67 -28 -101 -388 -460 l-357 -358 510 0 c339 0 523 -4 550 -11 139
-39 162 -234 34 -300 -31 -15 -59 -19 -154 -19 -63 0 -115 -2 -115 -5 0 -3 27
-52 60 -110 197 -341 292 -697 292 -1090 0 -408 -105 -786 -312 -1132 -28 -45
-50 -84 -50 -87 0 -2 13 -7 29 -11 76 -16 205 -118 261 -205 96 -151 96 -370
1 -519 -92 -142 -252 -231 -415 -231 -138 1 -252 47 -347 143 -53 52 -129 179
-129 215 0 5 -37 -12 -82 -40 -243 -147 -487 -238 -775 -290 -111 -20 -160
-23 -368 -22 -256 0 -338 9 -539 60 -195 49 -441 154 -601 255 -66 42 -85 47
-85 25 0 -7 -16 -45 -35 -83 -100 -200 -338 -305 -560 -248 -184 48 -328 210
-358 404 -34 222 100 449 310 527 27 10 49 18 51 19 1 1 -21 40 -49 86 -199
319 -319 748 -319 1134 0 216 40 464 111 678 42 129 150 362 213 461 20 31 36
59 36 61 0 3 -52 5 -115 5 -133 0 -169 11 -209 62 -50 67 -47 145 11 208 20
23 50 44 71 50 24 6 484 10 1322 10 l1285 0 470 471 c314 315 483 477 510 490
53 25 93 24 145 -4z m-1644 -323 c42 -20 70 -55 86 -105 15 -52 -3 -112 -46
-155 -110 -110 -294 -16 -273 139 14 107 133 168 233 121z"/>
<path d="M2380 5829 c-62 -26 -100 -85 -100 -156 0 -152 195 -217 287 -96 39
50 44 135 11 182 -12 19 -35 43 -50 54 -31 23 -111 32 -148 16z"/>
<path d="M4774 3420 c-33 -13 -83 -77 -88 -112 -3 -18 -10 -76 -17 -128 -59
-482 -421 -896 -894 -1019 -40 -11 -120 -25 -177 -31 -170 -18 -218 -53 -226
-162 -5 -67 18 -114 74 -148 43 -27 141 -28 282 -4 483 82 899 394 1120 839
85 172 132 334 152 528 11 104 11 109 -12 155 -31 63 -76 92 -142 91 -28 0
-60 -4 -72 -9z"/>
</g>
</svg>
