<svg id="tiktok-icon" xmlns="http://www.w3.org/2000/svg"  viewBox="0 0 32 32"><path d="M 9.6113281 5 C 7.0767063 5 5 7.0767063 5 9.6113281 L 5 22.388672 C 5 24.923294 7.0767063 27 9.6113281 27 L 22.388672 27 C 24.923294 27 27 24.923294 27 22.388672 L 27 9.6113281 C 27 7.0767063 24.923294 5 22.388672 5 L 9.6113281 5 z M 9.6113281 7 L 22.388672 7 C 23.84205 7 25 8.15795 25 9.6113281 L 25 22.388672 C 25 23.84205 23.84205 25 22.388672 25 L 9.6113281 25 C 8.15795 25 7 23.84205 7 22.388672 L 7 9.6113281 C 7 8.15795 8.15795 7 9.6113281 7 z M 17 9 L 17 19 C 17 20.116666 16.116666 21 15 21 C 13.883334 21 13 20.116666 13 19 C 13 17.883334 13.883334 17 15 17 L 15 15 C 12.802666 15 11 16.802666 11 19 C 11 21.197334 12.802666 23 15 23 C 17.197334 23 19 21.197334 19 19 L 19 12.888672 C 19.827834 13.529766 20.809277 13.98411 21.927734 14 L 21.957031 12 C 20.310764 11.976611 19 10.654231 19 9 L 17 9 z"/></svg>